<svg width="73" height="72" viewBox="0 0 73 72" fill="none" xmlns="http://www.w3.org/2000/svg">
<g clip-path="url(#clip0_2699_565)">
<g clip-path="url(#clip1_2699_565)">
<g clip-path="url(#clip2_2699_565)">
<path d="M66.6717 37.7429C66.4548 36.613 65.4666 35.7959 64.3161 35.7953H61.9989L61.8285 34.7741C61.6585 33.7484 60.8504 32.947 59.8233 32.7857C59.5953 32.7497 59.3649 32.7257 59.1381 32.6945C59.531 30.8599 59.2046 28.9445 58.2261 27.3437C58.743 26.0026 58.6466 24.5024 57.962 23.2387C57.2775 21.9749 56.0737 21.0745 54.6681 20.7749C53.7694 15.9653 49.5852 12.4691 44.6925 12.4397C44.5725 12.4397 44.4657 12.4553 44.3517 12.4589C43.5699 11.2311 42.2809 10.4162 40.8365 10.2366C39.3921 10.0569 37.9428 10.5312 36.8841 11.5301C35.5503 10.6631 33.994 10.2009 32.4033 10.1993C29.8401 10.2098 27.4245 11.3994 25.8537 13.4249C24.1095 12.9163 22.2287 13.2286 20.7425 14.2735C19.2563 15.3185 18.326 16.9827 18.2145 18.7961C16.3825 19.5662 15.1904 21.3592 15.1893 23.3465C15.193 23.691 15.2332 24.0341 15.3093 24.3701C13.6891 26.8125 13.2658 29.8584 14.1585 32.6501C13.8369 32.6945 13.5081 32.7341 13.1985 32.7797C12.166 32.9354 11.3507 33.7372 11.1777 34.7669L11.0073 35.7917H8.68406C7.53548 35.7925 6.54847 36.6069 6.32966 37.7345L1.07486 64.7129C0.869646 65.7694 1.14793 66.8624 1.83344 67.6922C2.51895 68.5219 3.53976 69.0014 4.61606 68.9993H29.6409C30.6345 70.6385 33.6537 71.3993 36.5001 71.3993C39.3165 71.3993 42.3069 70.6565 43.3293 68.9993H68.3841C69.4601 69.0014 70.4807 68.522 71.1661 67.6925C71.8516 66.8631 72.1301 65.7705 71.9253 64.7141L66.6717 37.7429ZM18.8181 25.5185C17.8437 24.9326 17.3787 23.7697 17.6806 22.6736C17.9824 21.5775 18.9772 20.8165 20.1141 20.8121C20.9097 20.8097 21.6585 21.1879 22.1289 21.8297C22.3844 22.1739 22.8041 22.3557 23.23 22.3066C23.6559 22.2574 24.0233 21.9848 24.1936 21.5914C24.364 21.198 24.3116 20.7435 24.0561 20.3993C23.2412 19.3102 22.0064 18.6135 20.6529 18.4793C21.0106 16.7987 22.4926 15.5956 24.2109 15.5909C24.3573 15.5983 24.5031 15.6143 24.6477 15.6389C24.5511 15.8849 24.467 16.1356 24.3957 16.3901C24.2463 17.0253 24.6319 17.6634 25.2637 17.8266C25.8955 17.9898 26.5419 17.6182 26.7189 16.9901C26.8553 16.4627 27.065 15.9569 27.3417 15.4877C28.4061 13.7044 30.3265 12.6086 32.4033 12.5993C33.5335 12.6043 34.638 12.9378 35.5821 13.5593C35.4022 14.0646 35.3069 14.5961 35.3001 15.1325C35.3001 15.7952 35.8373 16.3325 36.5001 16.3325C37.1628 16.3325 37.7001 15.7952 37.7001 15.1325C37.7001 13.7384 38.8302 12.6083 40.2243 12.6083C41.6183 12.6083 42.7485 13.7384 42.7485 15.1325C42.7485 15.7952 43.2857 16.3325 43.9485 16.3325C44.6112 16.3325 45.1485 15.7952 45.1485 15.1325C45.1485 15.0401 45.1257 14.9525 45.1209 14.8601C48.5569 15.0721 51.4462 17.5145 52.2273 20.8673C51.6675 21.0302 51.1416 21.2924 50.6745 21.6413C50.3315 21.8985 50.1518 22.3192 50.2031 22.7448C50.2544 23.1705 50.5288 23.5364 50.9231 23.7048C51.3173 23.8732 51.7715 23.8185 52.1145 23.5613C53.0734 22.8513 54.398 22.9079 55.2929 23.6971C56.1877 24.4863 56.4094 25.7935 55.8249 26.8337C55.5636 27.293 55.1667 27.6602 54.6885 27.8849C54.187 28.1277 53.9186 28.6838 54.0405 29.2275C54.1624 29.7712 54.6425 30.1594 55.1997 30.1649C55.3756 30.1651 55.5494 30.1262 55.7085 30.0509C56.0265 29.8968 56.327 29.7089 56.6049 29.4905C57.2252 31.254 56.8361 33.2153 55.5897 34.6085L55.5609 34.6385C53.9975 36.332 51.5037 36.7897 49.4409 35.7617C49.2388 35.655 49.0447 35.5338 48.8601 35.3993C49.7439 34.1601 49.866 32.5324 49.1769 31.1753C48.9839 30.7922 48.6013 30.5412 48.1731 30.5167C47.7449 30.4923 47.3362 30.6981 47.1009 31.0567C46.8656 31.4153 46.8395 31.8722 47.0325 32.2553C47.4271 33.0484 47.1809 34.0109 46.4541 34.5173C46.0272 34.8015 45.4999 34.8913 45.003 34.7646C44.5061 34.6379 44.0863 34.3064 43.8477 33.8525C43.6558 33.469 43.2739 33.217 42.8459 33.1914C42.4179 33.1658 42.0087 33.3705 41.7725 33.7284C41.5363 34.0863 41.509 34.543 41.7009 34.9265C42.4046 36.3471 43.8547 37.2443 45.4401 37.2401C45.9562 37.2366 46.4671 37.136 46.9461 36.9437C47.3747 37.3189 47.8469 37.6412 48.3525 37.9037C50.0627 38.7902 52.0515 38.974 53.8953 38.4161C52.7094 40.0353 50.9346 41.1235 48.9537 41.4461C48.3374 41.5464 47.901 42.1026 47.9502 42.725C47.9994 43.3475 48.5177 43.8282 49.1421 43.8305C49.2059 43.8305 49.2697 43.8256 49.3329 43.8161C50.0636 43.6896 50.7777 43.4811 51.4617 43.1945C51.8313 43.8481 52.1314 44.5386 52.3569 45.2549C52.3982 45.3799 52.4192 45.5108 52.4193 45.6425C52.419 46.1611 52.1092 46.6296 51.6321 46.8329C51.0801 47.0464 50.4534 46.8779 50.0829 46.4165C49.1535 45.3251 47.9366 44.5165 46.5705 44.0825C43.9773 43.2137 42.9765 42.4373 42.5517 41.5925C43.1743 41.5148 43.7895 41.3864 44.3913 41.2085C44.8011 41.0824 45.1126 40.7473 45.2084 40.3293C45.3041 39.9114 45.1697 39.4741 44.8556 39.1821C44.5415 38.8902 44.0955 38.788 43.6857 38.9141C43.0123 39.1207 42.3173 39.2483 41.6145 39.2945C40.2605 39.4003 38.9002 39.1951 37.6377 38.6945C37.1636 38.5096 36.6245 38.6438 36.2925 39.0293C34.5453 41.0362 31.555 41.3773 29.4008 39.8154C27.2465 38.2535 26.641 35.3054 28.0053 33.0209C28.2263 32.652 28.2337 32.1932 28.0247 31.8173C27.8157 31.4415 27.4221 31.2057 26.9921 31.1987C26.5621 31.1918 26.1611 31.4148 25.9401 31.7837C25.6538 32.2709 25.4235 32.789 25.2537 33.3281C24.3087 33.2784 23.5636 32.5054 23.5485 31.5593V31.5293C23.5478 31.2126 23.4207 30.9094 23.1954 30.6869C22.97 30.4645 22.6651 30.3414 22.3485 30.3449C21.6829 30.3515 21.1471 30.8936 21.1485 31.5593C21.1538 33.6874 22.7587 35.4712 24.8745 35.7005C24.8788 36.1027 24.9153 36.504 24.9837 36.9005C22.3043 37.4802 19.5253 36.5171 17.7793 34.4037C16.0333 32.2903 15.6119 29.3795 16.6869 26.8577C16.9553 27.1293 17.255 27.3682 17.5797 27.5693C18.1465 27.9013 18.8751 27.7158 19.2141 27.1531C19.5531 26.5903 19.3766 25.8596 18.8181 25.5137V25.5185ZM13.5381 35.1581C14.0913 35.0765 14.6625 35.0045 15.2301 34.9301C17.4488 38.4756 21.6922 40.1972 25.7541 39.1997C26.8455 41.2711 28.8397 42.7156 31.1482 43.1069C33.4566 43.4981 35.8155 42.7914 37.5285 41.1953C38.344 41.4385 39.1839 41.5906 40.0329 41.6489C40.6125 43.8473 42.2877 45.1793 45.8073 46.3589C46.7561 46.6563 47.6025 47.2138 48.2505 47.9681C48.9708 48.8247 50.0305 49.3225 51.1497 49.3301C51.6391 49.3299 52.1236 49.2312 52.5741 49.0397C53.9343 48.4583 54.8167 47.1217 54.8169 45.6425C54.818 45.2567 54.7564 44.8733 54.6345 44.5073C54.3646 43.6594 54.0092 42.8412 53.5737 42.0653C55.6142 40.5984 57.0357 38.4244 57.5613 35.9669C57.8168 35.6632 58.048 35.3398 58.2525 34.9997C58.6545 35.0513 59.0565 35.0969 59.4609 35.1641L63.7929 61.2209C55.3251 58.3933 46.1679 58.3933 37.7001 61.2209V46.1993C37.7001 45.5365 37.1628 44.9993 36.5001 44.9993C35.8373 44.9993 35.3001 45.5365 35.3001 46.1993V61.2257C26.8332 58.3955 17.6762 58.3922 9.20726 61.2161L13.5381 35.1581ZM3.68126 66.1577C3.45452 65.8838 3.36209 65.5229 3.42926 65.1737L8.68406 38.1953H10.6041L6.83846 60.8261C6.70602 61.6498 7.00932 62.4834 7.64014 63.0294C8.27097 63.5754 9.13944 63.7561 9.93566 63.5069C16.3329 61.4343 23.1482 61.0019 29.7561 62.2493L29.3985 66.5993H4.61606C4.25405 66.5995 3.91098 66.4375 3.68126 66.1577ZM36.5001 68.9993C33.6093 68.9993 31.9509 68.1449 31.7073 67.7645L32.1201 62.7845C33.4396 63.113 34.7308 63.546 35.9817 64.0793C36.1434 64.1572 36.3205 64.1982 36.5001 64.1993C36.6801 64.199 36.8577 64.158 37.0197 64.0793C38.2697 63.5428 39.5606 63.1071 40.8801 62.7761L41.2929 67.7633C41.0493 68.1449 39.3909 68.9993 36.5001 68.9993ZM69.3189 66.1577C69.0891 66.4375 68.7461 66.5995 68.3841 66.5993H43.6053L43.2453 62.2409C49.8568 60.996 56.6751 61.4322 63.0741 63.5093C63.8701 63.7552 64.7367 63.572 65.3651 63.0249C65.9935 62.4779 66.2943 61.6448 66.1605 60.8225L62.3985 38.1965H64.3185L69.5745 65.1725C69.641 65.5226 69.5472 65.8841 69.3189 66.1577Z" fill="#2DC071"/>
<path d="M32.5233 27.8215C32.0321 28.2659 31.9939 29.0244 32.4381 29.5159C33.4561 30.6398 34.8014 31.4155 36.2841 31.7335C35.6126 32.6797 34.5236 33.2412 33.3633 33.2395C32.7006 33.2395 32.1633 33.7767 32.1633 34.4395C32.1633 35.1022 32.7006 35.6395 33.3633 35.6395C35.8475 35.6494 38.0765 34.1151 38.9541 31.7911C41.938 31.2966 44.3003 28.9998 44.8785 26.0311C44.9679 25.6064 44.821 25.1667 44.4944 24.8809C44.1679 24.5952 43.7125 24.508 43.3035 24.6529C42.8944 24.7978 42.5955 25.1523 42.5217 25.5799C42.2864 26.8176 41.5723 27.9124 40.5345 28.6267C38.538 29.9713 35.8604 29.6661 34.2177 27.9067C33.7733 27.4155 33.0148 27.3773 32.5233 27.8215Z" fill="#2DC071"/>
<path d="M28.3401 26.5198C29.0029 26.5198 29.5401 25.9825 29.5401 25.3198C29.5401 24.4923 29.8689 23.6987 30.454 23.1136C31.0391 22.5285 31.8327 22.1998 32.6601 22.1998C33.3229 22.1998 33.8601 21.6625 33.8601 20.9998C33.8601 20.3371 33.3229 19.7998 32.6601 19.7998C29.6129 19.8031 27.1434 22.2726 27.1401 25.3198C27.1401 25.6381 27.2666 25.9433 27.4916 26.1683C27.7167 26.3934 28.0219 26.5198 28.3401 26.5198Z" fill="#2DC071"/>
<path d="M37.6998 2.99961V1.79961C37.6998 1.13687 37.1625 0.599609 36.4998 0.599609C35.8371 0.599609 35.2998 1.13687 35.2998 1.79961V2.99961C35.2998 3.66235 35.8371 4.19961 36.4998 4.19961C37.1625 4.19961 37.6998 3.66235 37.6998 2.99961Z" fill="#2DC071"/>
<path d="M56.1924 9.2111L54.9924 10.4111C54.6804 10.7124 54.5553 11.1586 54.6651 11.5781C54.7749 11.9977 55.1026 12.3253 55.5221 12.4351C55.9417 12.545 56.3879 12.4198 56.6892 12.1079L57.8892 10.9079C58.2011 10.6066 58.3262 10.1604 58.2164 9.74089C58.1066 9.32134 57.7789 8.99368 57.3594 8.88387C56.9398 8.77405 56.4936 8.89915 56.1924 9.2111Z" fill="#2DC071"/>
<path d="M17.1599 12.4595C17.6452 12.4594 18.0826 12.167 18.2683 11.7187C18.454 11.2703 18.3514 10.7543 18.0083 10.4111L16.8083 9.2111C16.507 8.89915 16.0608 8.77405 15.6413 8.88387C15.2217 8.99368 14.8941 9.32134 14.7843 9.74089C14.6744 10.1604 14.7995 10.6066 15.1115 10.9079L16.3115 12.1079C16.5365 12.333 16.8417 12.4594 17.1599 12.4595Z" fill="#2DC071"/>
<path d="M26.3971 7.40934C26.5548 7.40901 26.7109 7.37803 26.8567 7.31814C27.1509 7.19631 27.3845 6.96259 27.5063 6.66844C27.628 6.37429 27.6279 6.04381 27.5059 5.74974L26.1271 2.42334C25.9692 2.0182 25.6044 1.73019 25.1737 1.67055C24.743 1.6109 24.3137 1.78894 24.0516 2.13592C23.7895 2.48291 23.7356 2.94453 23.9107 3.34254L25.2883 6.66894C25.4742 7.11725 25.9118 7.40947 26.3971 7.40934Z" fill="#2DC071"/>
<path d="M48.4403 1.77407C47.8283 1.52087 47.1269 1.81144 46.8731 2.42327L45.4943 5.74967C45.372 6.04387 45.3717 6.37466 45.4935 6.66909C45.6152 6.96353 45.8491 7.19745 46.1435 7.31927C46.2894 7.37916 46.4455 7.41013 46.6031 7.41047C47.0885 7.41059 47.5261 7.11838 47.7119 6.67007L49.0895 3.34367C49.2119 3.04947 49.2122 2.71869 49.0904 2.42425C48.9686 2.12981 48.7348 1.8959 48.4403 1.77407Z" fill="#2DC071"/>
<path d="M60.8903 21.6978C61.0481 21.6975 61.2043 21.6661 61.3499 21.6054L64.6751 20.2278C65.0712 20.0638 65.3498 19.701 65.4059 19.2759C65.4619 18.8508 65.2869 18.4282 64.9469 18.1671C64.6068 17.906 64.1532 17.8462 63.7571 18.0102L60.4307 19.3878C59.8999 19.6058 59.5977 20.1692 59.7097 20.732C59.8217 21.2948 60.3165 21.6995 60.8903 21.6978Z" fill="#2DC071"/>
<path d="M11.6506 21.6057C12.2629 21.8595 12.9651 21.5689 13.219 20.9565C13.4728 20.3441 13.1821 19.6419 12.5698 19.3881L9.24335 18.0105C8.63098 17.757 7.92905 18.0479 7.67555 18.6603C7.42205 19.2727 7.71297 19.9746 8.32535 20.2281L11.6506 21.6057Z" fill="#2DC071"/>
</g>
</g>
</g>
<defs>
<clipPath id="clip0_2699_565">
<rect width="72" height="72" fill="white" transform="translate(0.5)"/>
</clipPath>
<clipPath id="clip1_2699_565">
<rect width="70.9823" height="70.8" fill="white" transform="translate(1.00879 0.599609)"/>
</clipPath>
<clipPath id="clip2_2699_565">
<rect width="70.9823" height="70.8" fill="white" transform="translate(1.00879 0.599609)"/>
</clipPath>
</defs>
</svg>
