<svg width="72" height="72" viewBox="0 0 72 72" fill="none" xmlns="http://www.w3.org/2000/svg">
<g clip-path="url(#clip0_2699_579)">
<g clip-path="url(#clip1_2699_579)">
<g clip-path="url(#clip2_2699_579)">
<path d="M71.9712 57.9212V51.5857H65.2133V47.362H62.9607V43.8423H65.2133V37.5068H48.369V39.6187H63.1015V41.7305H19.4067V43.8423H60.8487V47.362H14.8813C13.9109 47.362 13.1215 46.5726 13.1215 45.6022C13.1215 44.6317 13.9109 43.8423 14.8813 43.8423H17.2949V41.7305H14.8813C12.7466 41.7305 11.0097 43.4673 11.0097 45.6022C11.0097 47.7371 12.7466 49.4739 14.8813 49.4739H63.1013V51.5857H26.7076V53.6975H69.8592V55.8093H10.2353C6.93596 55.8093 4.25183 58.4935 4.25183 61.7928C4.25183 65.0922 6.93596 67.7763 10.2353 67.7763H59.9737V65.6645H10.2355C8.10056 65.6645 6.36379 63.9278 6.36379 61.7928C6.36379 59.6579 8.10056 57.9212 10.2355 57.9212H67.6067V61.4409H20.7946V63.5527H67.6067V65.6645H62.0857V67.7763H69.8593V69.8882H10.2355C5.77164 69.8882 2.14015 66.2567 2.14015 61.7928C2.14015 57.329 5.77164 53.6975 10.2355 53.6975H24.5959V51.5857H14.8815C11.5821 51.5857 8.89798 48.9015 8.89798 45.6022C8.89798 42.3028 11.5821 39.6187 14.8815 39.6187H46.2571V37.5068H14.8815C10.4177 37.5068 6.78616 41.1383 6.78616 45.6022C6.78616 47.9874 7.82363 50.1344 9.47043 51.6174C4.19847 52.0103 0.0283203 56.4222 0.0283203 61.7928C0.0283203 67.4211 4.60718 72 10.2355 72H71.9712V65.6645H69.7185V57.9212H71.9712Z" fill="white"/>
<path d="M16.5708 61.4404H18.6826V63.5522H16.5708V61.4404Z" fill="white"/>
<path d="M19.4572 31.3844L19.9274 31.6979C20.1107 31.8201 24.5487 34.6911 35.9998 34.6911C47.451 34.6911 51.8889 31.8201 52.0722 31.6979L52.5425 31.3844V13.6065L58.8779 11.4947V21.4637C57.2549 21.9247 56.0622 23.4192 56.0622 25.1879V30.4674H63.8055V25.1879C63.8055 23.4192 62.6128 21.9247 60.9898 21.4637V10.7907L64.6808 9.56037L53.5915 5.86383L52.9236 7.86725L58.0027 9.56023L35.9998 16.8946L13.997 9.56037L35.9998 2.22615L50.9202 7.19963L51.5881 5.19622L35.9998 0L7.31885 9.56037L19.4572 13.6065V31.3844ZM61.6937 25.1879V28.3556H58.174V25.1879C58.174 24.2174 58.9634 23.428 59.9338 23.428C60.9043 23.428 61.6937 24.2174 61.6937 25.1879ZM21.569 14.3104L35.9998 19.1207L50.4306 14.3104V22.5833H47.826V24.6951H50.4306V26.8069H45.855V28.9188H50.4306V30.1918C49.0698 30.8545 44.6914 32.5793 35.9998 32.5793C27.3016 32.5793 22.9231 30.8518 21.569 30.1923V14.3104Z" fill="white"/>
<path d="M12.3472 61.4404H14.459V63.5522H12.3472V61.4404Z" fill="white"/>
<path d="M41.6313 26.8066H43.7432V28.9185H41.6313V26.8066Z" fill="white"/>
</g>
</g>
</g>
<defs>
<clipPath id="clip0_2699_579">
<rect width="72" height="72" fill="white"/>
</clipPath>
<clipPath id="clip1_2699_579">
<rect width="72" height="72" fill="white"/>
</clipPath>
<clipPath id="clip2_2699_579">
<rect width="71.9428" height="72" fill="white" transform="translate(0.0283203)"/>
</clipPath>
</defs>
</svg>
