<svg width="72" height="72" viewBox="0 0 72 72" fill="none" xmlns="http://www.w3.org/2000/svg">
<g clip-path="url(#clip0_2699_587)">
<g clip-path="url(#clip1_2699_587)">
<g clip-path="url(#clip2_2699_587)">
<g clip-path="url(#clip3_2699_587)">
<path d="M70.8006 3.14169e-08C70.8005 3.14169e-08 70.8002 3.14169e-08 70.8 3.14169e-08H1.2C0.53745 -0.000149969 0.00015 0.53685 0 1.1994C0 1.19955 0 1.19985 0 1.2V25.2H2.4V2.4H69.6V28.8H27.6V31.2H70.8C71.4626 31.2002 71.9999 30.6632 72 30.0006C72 30.0005 72 30.0002 72 30V1.2C72.0002 0.53745 71.4632 0.000150031 70.8006 3.14169e-08Z" fill="#FF7B52"/>
</g>
</g>
<g clip-path="url(#clip4_2699_587)">
<g clip-path="url(#clip5_2699_587)">
<path d="M63.6001 6H39.6001V8.4H63.6001V6Z" fill="#FF7B52"/>
</g>
</g>
<g clip-path="url(#clip6_2699_587)">
<g clip-path="url(#clip7_2699_587)">
<path d="M67.2002 13.2002H43.2002V15.6002H67.2002V13.2002Z" fill="#FF7B52"/>
</g>
</g>
<g clip-path="url(#clip8_2699_587)">
<g clip-path="url(#clip9_2699_587)">
<path d="M62.3999 20.4004H38.3999V22.8004H62.3999V20.4004Z" fill="#FF7B52"/>
</g>
</g>
<g clip-path="url(#clip10_2699_587)">
<g clip-path="url(#clip11_2699_587)">
<path d="M38.3043 10.3459C37.4827 8.37115 35.2159 7.43635 33.2413 8.2579C33.2076 8.272 33.174 8.2864 33.1407 8.3014L23.4105 13.3489C23.7942 12.5536 23.9956 11.6827 24 10.7998C24 7.48615 21.3136 4.7998 18 4.7998C14.6863 4.7998 12 7.48615 12 10.7998C12.0045 12.1023 12.4369 13.3672 13.2307 14.3998H13.1808C9.7746 14.4226 6.73395 16.5402 5.5314 19.7272L2.328 30.7686C1.5654 32.7495 2.553 34.9737 4.53405 35.7363C5.43735 36.084 6.4386 36.0781 7.33785 35.7198C8.37105 35.3035 9.17505 34.4629 9.5451 33.4123L10.8 29.4186V46.786C9.7674 45.9924 8.50245 45.5599 7.2 45.5553C3.8913 45.5503 1.20495 48.2286 1.2 51.5374C1.1976 53.1579 1.8516 54.7101 3.01305 55.8402C1.16985 56.7819 0.00720003 58.6743 3.14169e-08 60.7439V70.7998C-0.000149969 71.4623 0.53685 71.9996 1.1994 71.9998C1.19955 71.9998 1.19985 71.9998 1.2 71.9998H13.2C13.8625 72 14.3998 71.463 14.4 70.8004C14.4 70.8002 14.4 70.7999 14.4 70.7998V60.7439C14.3941 59.0431 13.6039 57.4402 12.2586 56.3998H21.3415C19.996 57.4402 19.2059 59.0431 19.2001 60.7439V70.7998C19.2 71.4623 19.737 71.9996 20.3995 71.9998C20.3997 71.9998 20.4 71.9998 20.4002 71.9998H32.4002C33.0627 72 33.6 71.463 33.6001 70.8004C33.6001 70.8002 33.6001 70.7999 33.6001 70.7998V60.7439C33.5929 58.6743 32.4303 56.7819 30.5871 55.8402C32.9563 53.5276 33.0024 49.7322 30.6898 47.3629C29.2657 45.9039 27.1977 45.2686 25.2001 45.6766V21.1287L36.2163 15.4087C38.1909 14.5873 39.1257 12.3205 38.3043 10.3459ZM18 7.1998C19.9882 7.1998 21.6 8.81155 21.6 10.7998C21.6 12.7881 19.9882 14.3998 18 14.3998C16.0126 14.3977 14.4021 12.7872 14.4 10.7998C14.4 8.81155 16.0117 7.1998 18 7.1998ZM7.2 47.9553C9.18825 47.9553 10.8 49.567 10.8 51.5553C10.8 53.5435 9.18825 55.1553 7.2 55.1553C5.21175 55.1553 3.6 53.5435 3.6 51.5553C3.6021 49.5679 5.21265 47.9575 7.2 47.9553ZM12 69.5998H2.4V60.7439C2.4024 59.0083 3.80895 57.6019 5.54475 57.5998H8.85525C10.5909 57.6019 11.9976 59.0083 12 60.7439V69.5998ZM31.2 60.7439V69.5998H21.6V60.7439C21.6024 59.0083 23.0089 57.6019 24.7447 57.5998H28.0552C29.791 57.6019 31.1976 59.0083 31.2 60.7439ZM26.4 47.9553C28.3873 47.9574 29.9979 49.5679 30 51.5553C30 53.5435 28.3882 55.1553 26.4 55.1553C24.4117 55.1553 22.8 53.5435 22.8 51.5553C22.8 49.567 24.4117 47.9553 26.4 47.9553ZM36.1084 12.3478C35.9478 12.76 35.618 13.0836 35.2026 13.2361L23.4475 19.3345C23.0497 19.5409 22.8 19.9518 22.8 20.3998V46.786C20.5522 48.448 19.7736 51.456 20.9328 53.9998H19.2V33.5998H16.8V53.9998H12.6672C13.0086 53.2453 13.1884 52.4278 13.1955 51.5998H13.2V21.5998C13.1998 20.937 12.6624 20.3998 11.9997 20.4C11.4757 20.4001 11.0124 20.7402 10.8552 21.2401L7.272 32.6424C7.0005 33.3912 6.17325 33.7782 5.42445 33.5065C5.37195 33.4875 5.3205 33.4654 5.2704 33.4404C4.57815 33.0826 4.2843 32.2474 4.6002 31.5349L7.80345 20.4936C8.6673 18.2751 10.7998 16.8102 13.1806 16.7998H21.6774C21.8697 16.8001 22.0593 16.7538 22.23 16.6651L34.1568 10.4742C34.8723 10.1757 35.697 10.4811 36.0453 11.1738C36.2299 11.5389 36.2529 11.9649 36.1084 12.3478Z" fill="#FF7B52"/>
</g>
</g>
<g clip-path="url(#clip12_2699_587)">
<g clip-path="url(#clip13_2699_587)">
<path d="M49.7869 55.8406C52.1603 53.5282 52.2098 49.7294 49.8974 47.3559C47.585 44.9825 43.7863 44.933 41.4128 47.2454C39.0394 49.5578 38.9899 53.3566 41.3023 55.73C41.3387 55.7674 41.3756 55.8043 41.413 55.8406C39.5699 56.7823 38.4071 58.6746 38.3999 60.7443V70.8002C38.3998 71.4627 38.9368 72 39.5993 72.0002C39.5995 72.0002 39.5998 72.0002 39.5999 72.0002H51.5999C52.2625 72.0003 52.7998 71.4633 52.7999 70.8008C52.7999 70.8006 52.7999 70.8003 52.7999 70.8002V60.7443C52.7927 58.6746 51.6301 56.7823 49.7869 55.8406ZM45.5999 47.9557C47.5882 47.9557 49.1999 49.5674 49.1999 51.5557C49.1999 53.5439 47.5882 55.1557 45.5999 55.1557C43.6117 55.1557 41.9999 53.5439 41.9999 51.5557C42.002 49.5683 43.6126 47.9579 45.5999 47.9557ZM50.3999 69.6002H40.7999V60.7443C40.8023 59.0087 42.2089 57.6023 43.9447 57.6002H47.2552C48.9908 57.6023 50.3975 59.0087 50.3999 60.7443V69.6002Z" fill="#FF7B52"/>
</g>
</g>
<g clip-path="url(#clip14_2699_587)">
<g clip-path="url(#clip15_2699_587)">
<path d="M68.987 55.8406C71.3605 53.5282 71.41 49.7294 69.0976 47.3559C66.7852 44.9825 62.9864 44.933 60.613 47.2454C58.2395 49.5578 58.19 53.3566 60.5024 55.73C60.5389 55.7674 60.5758 55.8043 60.6131 55.8406C58.7701 56.7823 57.6073 58.6746 57.6001 60.7443V70.8002C57.5999 71.4627 58.1369 72 58.7995 72.0002C58.7996 72.0002 58.7999 72.0002 58.8001 72.0002H70.8001C71.4626 72.0003 71.9999 71.4633 72.0001 70.8008C72.0001 70.8006 72.0001 70.8003 72.0001 70.8002V60.7443C71.9929 58.6746 70.8302 56.7823 68.987 55.8406ZM64.8001 47.9557C66.7883 47.9557 68.4001 49.5674 68.4001 51.5557C68.4001 53.5439 66.7883 55.1557 64.8001 55.1557C62.8118 55.1557 61.2001 53.5439 61.2001 51.5557C61.2022 49.5683 62.8127 47.9579 64.8001 47.9557ZM69.6001 69.6002H60.0001V60.7443C60.0025 59.0087 61.409 57.6023 63.1448 57.6002H66.4553C68.191 57.6023 69.5977 59.0087 69.6001 60.7443V69.6002Z" fill="#FF7B52"/>
</g>
</g>
</g>
</g>
<defs>
<clipPath id="clip0_2699_587">
<rect width="72" height="72" fill="white"/>
</clipPath>
<clipPath id="clip1_2699_587">
<rect width="72" height="72" fill="white"/>
</clipPath>
<clipPath id="clip2_2699_587">
<rect width="72" height="31.2" fill="white"/>
</clipPath>
<clipPath id="clip3_2699_587">
<rect width="72" height="31.2" fill="white"/>
</clipPath>
<clipPath id="clip4_2699_587">
<rect width="24" height="2.4" fill="white" transform="translate(39.6001 6)"/>
</clipPath>
<clipPath id="clip5_2699_587">
<rect width="24" height="2.4" fill="white" transform="translate(39.6001 6)"/>
</clipPath>
<clipPath id="clip6_2699_587">
<rect width="24" height="2.4" fill="white" transform="translate(43.2002 13.2002)"/>
</clipPath>
<clipPath id="clip7_2699_587">
<rect width="24" height="2.4" fill="white" transform="translate(43.2002 13.2002)"/>
</clipPath>
<clipPath id="clip8_2699_587">
<rect width="24" height="2.4" fill="white" transform="translate(38.3999 20.4004)"/>
</clipPath>
<clipPath id="clip9_2699_587">
<rect width="24" height="2.4" fill="white" transform="translate(38.3999 20.4004)"/>
</clipPath>
<clipPath id="clip10_2699_587">
<rect width="38.6023" height="67.2" fill="white" transform="translate(0 4.7998)"/>
</clipPath>
<clipPath id="clip11_2699_587">
<rect width="38.6023" height="67.2" fill="white" transform="translate(0 4.7998)"/>
</clipPath>
<clipPath id="clip12_2699_587">
<rect width="14.4" height="26.4572" fill="white" transform="translate(38.3999 45.543)"/>
</clipPath>
<clipPath id="clip13_2699_587">
<rect width="14.4" height="26.4572" fill="white" transform="translate(38.3999 45.543)"/>
</clipPath>
<clipPath id="clip14_2699_587">
<rect width="14.4" height="26.4572" fill="white" transform="translate(57.6001 45.543)"/>
</clipPath>
<clipPath id="clip15_2699_587">
<rect width="14.4" height="26.4572" fill="white" transform="translate(57.6001 45.543)"/>
</clipPath>
</defs>
</svg>
